<?xml version="1.0" standalone="no"?>
<!DOCTYPE svg PUBLIC "-//W3C//DTD SVG 20010904//EN"
 "http://www.w3.org/TR/2001/REC-SVG-20010904/DTD/svg10.dtd">
<svg version="1.0" xmlns="http://www.w3.org/2000/svg"
 width="449.000000pt" height="449.000000pt" viewBox="0 0 449.000000 449.000000"
 preserveAspectRatio="xMidYMid meet">
<metadata>
Created by potrace 1.11, written by Peter Selinger 2001-2013
</metadata>
<g transform="translate(0.000000,449.000000) scale(0.100000,-0.100000)"
fill="#000000" stroke="none">
<path d="M2163 4470 c-48 -24 -89 -80 -97 -129 -2 -19 -13 -39 -23 -45 -56
-35 -201 -118 -348 -202 -11 -6 -135 -78 -275 -159 -140 -81 -269 -156 -287
-166 -438 -249 -754 -437 -776 -460 l-27 -29 0 -981 0 -981 -26 -21 c-31 -24
-63 -90 -64 -131 -1 -119 111 -210 222 -183 36 9 50 2 600 -316 310 -178 581
-335 603 -347 22 -12 78 -45 125 -73 47 -27 101 -59 120 -70 19 -10 96 -55
171 -98 85 -50 146 -79 165 -79 18 0 71 25 138 65 60 36 111 65 113 65 2 0 43
23 91 51 48 29 103 61 122 72 19 11 150 86 290 167 140 81 271 157 290 167 19
11 76 44 125 73 50 29 108 62 130 75 22 12 127 73 233 134 180 105 195 111
230 104 53 -10 53 -10 101 3 131 38 172 199 77 302 l-21 24 -1 977 c0 1018 -1
1022 -42 1047 -24 15 -903 526 -927 539 -11 5 -31 17 -45 26 -24 15 -295 174
-391 228 -25 14 -109 62 -186 106 -120 68 -142 84 -147 108 -19 90 -80 146
-168 153 -41 4 -63 0 -95 -16z m-12 -477 l1 -130 -36 -39 c-128 -136 -4 -345
177 -299 132 33 178 194 86 294 l-31 35 0 135 c0 75 5 135 9 134 5 -1 43 -22
84 -46 41 -24 94 -55 119 -69 25 -14 96 -55 158 -92 62 -36 132 -77 155 -90
23 -13 168 -97 322 -186 154 -90 294 -171 310 -180 17 -9 108 -63 204 -119 96
-55 176 -101 178 -101 2 0 21 -12 43 -26 l40 -27 0 -928 c0 -511 -3 -929 -6
-929 -3 0 -59 30 -124 66 -106 60 -119 70 -128 103 -23 74 -93 123 -179 124
-157 2 -237 -202 -121 -310 52 -49 130 -65 191 -40 31 14 36 12 150 -52 91
-50 114 -68 105 -76 -12 -11 -270 -163 -373 -220 -22 -12 -157 -90 -300 -173
-928 -537 -937 -542 -959 -530 -11 6 -338 194 -726 418 -388 223 -744 429
-792 456 -48 27 -88 52 -88 55 0 3 46 31 102 61 96 53 103 55 132 43 39 -17
113 -12 154 9 60 31 104 114 95 181 -11 85 -86 155 -169 159 -86 4 -170 -55
-189 -134 -5 -20 -30 -39 -108 -82 -56 -31 -104 -55 -107 -53 -6 4 -6 1853 0
1859 4 4 648 377 740 429 19 11 71 40 115 66 44 25 88 51 97 56 159 91 385
222 508 294 85 49 156 89 157 87 2 -1 3 -61 4 -133z"/>
<path d="M1299 3465 c-83 -53 -218 -225 -278 -357 -119 -257 -131 -586 -36
-921 83 -290 229 -574 488 -950 84 -122 127 -195 168 -290 23 -55 41 -83 59
-92 25 -13 43 -31 148 -153 25 -28 64 -65 87 -80 l41 -27 255 0 c307 1 263
-18 459 201 19 22 48 48 63 57 15 10 33 30 39 45 41 99 106 224 121 230 4 2 7
8 7 14 0 5 28 48 62 96 241 338 437 732 502 1007 32 134 35 151 42 230 36 384
-64 691 -301 927 -79 79 -116 97 -145 68 -25 -25 -19 -42 45 -111 188 -206
274 -492 242 -809 -15 -147 -64 -338 -118 -457 -10 -24 -19 -45 -19 -48 0 -13
-116 -236 -163 -315 -188 -314 -280 -403 -452 -435 -135 -25 -616 -24 -779 1
-93 14 -176 63 -251 145 -40 45 -183 258 -236 354 -138 249 -227 494 -258 718
-12 83 -12 254 -1 322 17 102 22 122 47 195 50 147 103 235 216 354 40 43 46
66 21 87 -24 20 -35 19 -75 -6z"/>
</g>
</svg>
